<?xml version="1.0" encoding="UTF-8"?>
<!DOCTYPE svg PUBLIC "-//W3C//DTD SVG 1.1//EN" "http://www.w3.org/Graphics/SVG/1.1/DTD/svg11.dtd">
<!-- Creator: CorelDRAW 2020 (64 Bit) -->
<svg xmlns="http://www.w3.org/2000/svg" xml:space="preserve" width="42.3332mm" height="42.3332mm" version="1.1" style="shape-rendering:geometricPrecision; text-rendering:geometricPrecision; image-rendering:optimizeQuality; fill-rule:evenodd; clip-rule:evenodd"
viewBox="0 0 4233.32 4233.32"
 xmlns:xlink="http://www.w3.org/1999/xlink"
 xmlns:xodm="http://www.corel.com/coreldraw/odm/2003">
 <defs>
  <style type="text/css">
   <![CDATA[
    .fil1 {fill:#09A885}
    .fil0 {fill:#FEFEFE}
    .fil3 {fill:#FEFFFD}
    .fil2 {fill:url(#id0)}
   ]]>
  </style>
  <linearGradient id="id0" gradientUnits="userSpaceOnUse" x1="-335.74" y1="4739.92" x2="6237.93" y2="-1909.47">
   <stop offset="0" style="stop-opacity:1; stop-color:#1379A2"/>
   <stop offset="0.568627" style="stop-opacity:1; stop-color:#0B9D8C"/>
   <stop offset="1" style="stop-opacity:1; stop-color:#03C276"/>
  </linearGradient>
 </defs>
 <g id="Camada_x0020_1">
  <metadata id="CorelCorpID_0Corel-Layer"/>
  <g id="_2236752793616">
   <path class="fil0" d="M320.11 4093.83c103.37,-19.56 485.24,-143.38 626.59,-188.35 101.03,-32.16 115.2,-56.16 196.02,-12.41 838.13,453.7 1759.54,261.66 2381.25,-316.91 386.11,-359.29 624.34,-926.05 620.76,-1471.44 -3.79,-575.32 -266.66,-1146.51 -673.85,-1496.98 -670.81,-577.37 -1613.95,-696.46 -2376.19,-239.44 -177.9,106.65 -309.74,210.25 -442.83,352.07 -660.59,703.91 -753.66,1726.62 -207.7,2542.4 61.61,92.04 52.06,56.22 23.08,181.67 -16.42,71.12 -32.78,143.54 -48.93,214.53 -30.93,135.95 -80.46,298.41 -98.2,434.86z"/>
   <path class="fil1" d="M475.43 3924.59c94.43,-17.88 443.28,-131.11 572.42,-172.23 92.29,-29.4 105.24,-51.35 179.07,-11.34 765.67,414.86 1607.41,239.25 2175.37,-289.78 352.73,-328.55 570.36,-846.79 567.09,-1345.49 -3.45,-526.08 -243.6,-1048.37 -615.59,-1368.85 -612.81,-527.95 -1474.41,-636.84 -2170.75,-218.94 -162.51,97.52 -282.96,192.25 -404.54,321.93 -603.48,643.66 -688.5,1578.83 -189.74,2324.78 56.28,84.16 47.56,51.41 21.09,166.12 -15.01,65.03 -29.95,131.26 -44.71,196.17 -28.25,124.31 -73.5,272.86 -89.71,397.63z"/>
   <path class="fil2" d="M1921.15 2775.6c-80.65,0 -130.34,-16.68 -185.71,-75.64 -39.01,-41.54 -50.75,-102.41 -50.75,-181.57l-0.16 -448.19c0.28,-23.54 4.41,-28.7 4.45,-53.62 0.05,-37.37 -0.22,-74.77 -0.14,-112.16 0.1,-41.52 -4.15,-68.72 -4.15,-112l-448.03 0c0,29.38 -2.19,62.22 -4.15,96.02l0 141.96c0.51,4.5 1.09,8.94 1.75,13.33 7.17,47.35 2.64,435.24 2.31,516.25 -0.28,68.4 18.48,160.89 38.98,222.36 79.82,239.41 345.55,437.14 604.11,437.14 216.32,0 338.99,-56.54 482.45,-177.15l49.78 -49.79c188.57,-224.26 164.71,-368.49 164.71,-656.67 0,-203.84 -14.75,-419.55 93.74,-582.46 32.5,-48.8 68.55,-86.83 120.64,-115.81 68.03,-37.85 111.48,-37.03 176.15,-60.32 97.39,-35.05 81.56,-105.17 98.24,-254.38 4.42,-39.59 7.68,-68.12 18.77,-101.52 37.49,-112.86 163.31,-163.96 284.8,-192.27 -7.14,-4.54 -26.43,-7.02 -50.26,-8.29l-143.96 0c-34.52,0.18 -53.88,4.35 -87.84,4.17 -124.92,-0.64 -223.19,8.11 -327.81,62.14 -197.8,102.14 -121.82,295.16 -165.23,415.54 -37.71,104.54 -161.22,76.92 -254.56,135.39 -245.62,153.85 -210.71,474.74 -210.71,760.03 0,132.79 20.87,229.34 -69.46,320.49 -34.81,35.13 -86.15,57.02 -137.96,57.02z"/>
   <path class="fil3" d="M1743.16 2775.6c-80.65,0 -130.34,-16.68 -185.71,-75.64 -39.01,-41.54 -50.75,-102.41 -50.75,-181.56l-0.16 -448.2c0.29,-23.54 4.42,-28.7 4.45,-53.62 0.05,-37.37 -0.22,-74.77 -0.13,-112.16 0.09,-41.52 -4.16,-68.72 -4.16,-112l-448.02 0c0,29.38 -2.2,62.22 -4.15,96.02l0 141.96c0.51,4.5 1.08,8.94 1.74,13.33 7.17,47.35 2.64,435.24 2.31,516.25 -0.28,68.4 18.48,160.89 38.98,222.36 79.83,239.41 345.55,437.14 604.12,437.14 216.32,0 338.99,-56.54 482.44,-177.15l49.78 -49.79c188.57,-224.26 164.71,-368.49 164.71,-656.67 0,-203.84 -14.75,-419.55 93.74,-582.46 32.5,-48.8 68.55,-86.83 120.65,-115.81 68.02,-37.85 111.47,-37.03 176.14,-60.32 97.39,-35.05 81.56,-105.17 98.24,-254.38 4.42,-39.59 7.68,-68.12 18.78,-101.52 37.48,-112.86 163.3,-163.96 284.79,-192.27 -7.14,-4.54 -26.43,-7.02 -50.25,-8.29l-143.96 0c-34.53,0.18 -53.89,4.35 -87.84,4.17 -124.93,-0.64 -223.2,8.11 -327.82,62.14 -197.79,102.14 -121.82,295.17 -165.23,415.54 -37.7,104.54 -161.21,76.92 -254.56,135.4 -245.61,153.84 -210.71,474.73 -210.71,760.02 0,132.79 20.87,229.34 -69.46,320.49 -34.81,35.13 -86.15,57.02 -137.96,57.02z"/>
  </g>
 </g>
</svg>
